<?xml version="1.0" standalone="no"?>
<!DOCTYPE svg PUBLIC "-//W3C//DTD SVG 20010904//EN"
 "http://www.w3.org/TR/2001/REC-SVG-20010904/DTD/svg10.dtd">
<svg version="1.0" xmlns="http://www.w3.org/2000/svg"
 width="260.000000pt" height="260.000000pt" viewBox="0 0 260.000000 260.000000"
 preserveAspectRatio="xMidYMid meet">
<metadata>
Created by potrace 1.11, written by Peter Selinger 2001-2013
</metadata>
<g transform="translate(0.000000,260.000000) scale(0.100000,-0.100000)"
fill="#000000" stroke="none">
<path d="M313 1428 c-68 -172 -138 -353 -157 -401 l-35 -88 81 3 81 3 26 70
27 70 186 3 187 2 28 -75 28 -75 77 0 c43 0 78 3 78 8 0 4 -69 183 -154 397
l-153 390 -89 3 -89 3 -122 -313z m282 -18 c37 -99 66 -183 63 -186 -3 -2 -66
-3 -141 -2 l-135 3 64 170 c35 94 66 176 69 183 2 6 6 12 8 12 2 0 34 -81 72
-180z"/>
<path d="M1020 1340 l0 -400 70 0 70 0 0 175 0 175 200 0 201 0 -3 58 -3 57
-197 3 -198 2 0 105 0 105 200 0 200 0 0 60 0 60 -270 0 -270 0 0 -400z"/>
<path d="M1690 1340 l0 -400 70 0 70 0 0 175 0 175 205 0 205 0 0 -175 0 -175
70 0 70 0 0 400 0 400 -70 0 -70 0 0 -165 0 -165 -205 0 -205 0 0 165 0 165
-70 0 -70 0 0 -400z"/>
</g>
</svg>
